<?xml version="1.0" encoding="UTF-8"?><svg xmlns="http://www.w3.org/2000/svg" viewBox="0 0 131.77 50.78"><defs><style>.d{fill:#004379;}.e{fill:#9d9d9c;}.f{fill:#4c4e53;}</style></defs><g id="a"/><g id="b"><g id="c"><g><path class="f" d="M50.56,47.92v-7.5c.05,0,.12,.02,.21,.02,.09,0,.15,.02,.2,.02,.06,0,.15-.01,.28-.02,.12,0,.22-.02,.29-.02v6.98c.12,0,.24,0,.34,.03,.41-.01,.88-.04,1.42-.07,.53-.04,.96-.07,1.27-.11,0,.04-.01,.1-.02,.19,0,.08-.02,.14-.02,.19,.03,.16,.04,.26,.04,.3h-3.99Z"/><path class="f" d="M56.33,45.46c0-.56,.12-1.06,.36-1.5,.24-.43,.57-.77,.98-1,.42-.23,.87-.35,1.36-.35,.39,0,.75,.07,1.08,.2,.33,.13,.61,.32,.84,.56,.23,.24,.41,.53,.53,.86,.12,.33,.19,.68,.19,1.06,0,.31-.05,.62-.16,.95-.11,.32-.27,.62-.49,.89-.22,.27-.51,.49-.86,.66-.35,.17-.77,.25-1.24,.25h-.01c-.51,0-.95-.12-1.33-.33-.38-.21-.68-.51-.9-.9-.22-.39-.34-.84-.36-1.36Zm.97-.02c0,.33,.04,.66,.13,1,.09,.33,.26,.63,.51,.87,.25,.25,.59,.38,1.02,.39,.33,0,.64-.11,.9-.32,.27-.21,.47-.5,.62-.87,.15-.36,.22-.76,.22-1.19,0-.26-.03-.53-.09-.8-.06-.27-.15-.52-.27-.76-.12-.23-.29-.42-.49-.57-.2-.15-.45-.22-.74-.23-.41,0-.76,.11-1.04,.34-.28,.23-.48,.53-.6,.9-.13,.38-.19,.79-.19,1.24Z"/><path class="f" d="M63.78,47.96v-5.27c.12,0,.25,.02,.39,.04,.25-.03,.41-.04,.49-.04v.99c.19-.29,.42-.53,.69-.74,.27-.2,.63-.31,1.1-.31,.57,0,1.01,.15,1.31,.45,.31,.3,.46,.84,.46,1.6v3.27c-.05,0-.13-.01-.22-.02-.1,0-.17-.01-.22-.02-.04,0-.12,.01-.22,.02-.1,0-.18,.01-.23,.02v-2.99c0-.71-.11-1.18-.32-1.42-.22-.24-.52-.36-.89-.36-.53,0-.9,.18-1.12,.54-.22,.36-.33,.86-.33,1.48v2.75c-.06,0-.14-.01-.25-.02-.11,0-.19-.01-.25-.02-.04,0-.1,.01-.19,.02-.08,0-.15,.01-.2,.02Z"/><path class="f" d="M70.75,46.34v-3.24h-.68c.01-.05,.02-.12,.02-.19,0-.1,0-.18-.02-.22h.68v-1.09l.88-.34v1.43h1.17c0,.09,0,.16-.02,.22,.01,.04,.02,.11,.02,.19h-1.17v3.01c0,.07,0,.14-.02,.2,.02,.41,.08,.73,.18,.96,.1,.23,.32,.37,.65,.4,.18-.02,.35-.05,.5-.09v.25c-.34,.13-.67,.2-.98,.2-.26,0-.46-.04-.6-.11-.27-.13-.43-.33-.5-.58-.07-.25-.1-.58-.1-.99Z"/><path class="f" d="M74.4,46.72c0-.44,.1-.77,.31-1,.21-.22,.57-.39,1.09-.49,.09-.03,.27-.05,.54-.08,.27-.03,.48-.06,.65-.1,.17-.04,.31-.11,.43-.22,.12-.11,.18-.27,.18-.47,0-.37-.12-.67-.37-.91-.25-.24-.55-.36-.92-.36-.28,0-.55,.07-.8,.2-.25,.13-.42,.32-.51,.55h-.13v-.61c.59-.39,1.18-.59,1.78-.59,.55,0,.99,.14,1.31,.43,.32,.29,.48,.74,.48,1.35v2.64c0,.06,0,.11-.02,.15,.02,.13,.05,.21,.08,.25,.03,.04,.1,.08,.22,.13,.05,0,.11-.02,.18-.04,.08-.02,.12-.03,.15-.03v.23c-.26,.1-.49,.15-.69,.15s-.38-.06-.52-.17c-.14-.12-.22-.28-.25-.5-.47,.54-1.03,.8-1.67,.8-.28,0-.53-.06-.76-.17-.23-.11-.41-.27-.55-.48-.13-.21-.2-.43-.2-.68Zm3.16,.1v-1.61c-.2,.03-.45,.08-.72,.12-.28,.05-.53,.12-.75,.2-.22,.08-.41,.21-.56,.37-.15,.16-.23,.37-.25,.64,0,.04,.01,.09,.02,.15,0,.06,.02,.13,.03,.19,.04,.19,.15,.36,.33,.49,.18,.14,.38,.21,.62,.22,.49-.03,.91-.29,1.29-.78Z"/><path class="f" d="M81.1,47.96v-5.27c.12,0,.25,.02,.39,.04,.25-.03,.41-.04,.49-.04v.99c.19-.29,.42-.53,.69-.74,.27-.2,.63-.31,1.1-.31,.57,0,1,.15,1.31,.45,.31,.3,.46,.84,.46,1.6v3.27c-.05,0-.12-.01-.22-.02-.09,0-.17-.01-.22-.02-.04,0-.12,.01-.22,.02-.1,0-.18,.01-.23,.02v-2.99c0-.71-.11-1.18-.33-1.42-.22-.24-.51-.36-.89-.36-.53,0-.9,.18-1.12,.54-.22,.36-.33,.86-.33,1.48v2.75c-.06,0-.14-.01-.25-.02-.11,0-.19-.01-.25-.02-.04,0-.1,.01-.19,.02-.08,0-.15,.01-.2,.02Z"/><path class="f" d="M87.79,46.72c0-.44,.1-.77,.31-1,.21-.22,.57-.39,1.09-.49,.09-.03,.27-.05,.54-.08,.27-.03,.48-.06,.65-.1,.17-.04,.31-.11,.43-.22,.12-.11,.18-.27,.18-.47,0-.37-.12-.67-.37-.91-.25-.24-.55-.36-.92-.36-.28,0-.55,.07-.8,.2-.25,.13-.42,.32-.51,.55h-.13v-.61c.58-.39,1.18-.59,1.78-.59,.55,0,.99,.14,1.31,.43,.32,.29,.48,.74,.48,1.35v2.64c0,.06,0,.11-.02,.15,.02,.13,.05,.21,.08,.25,.03,.04,.1,.08,.22,.13,.05,0,.11-.02,.18-.04,.08-.02,.12-.03,.15-.03v.23c-.26,.1-.49,.15-.69,.15s-.38-.06-.53-.17c-.14-.12-.22-.28-.25-.5-.47,.54-1.03,.8-1.67,.8-.28,0-.53-.06-.76-.17-.23-.11-.41-.27-.54-.48-.13-.21-.2-.43-.2-.68Zm3.16,.1v-1.61c-.21,.03-.45,.08-.72,.12-.28,.05-.53,.12-.75,.2-.22,.08-.41,.21-.56,.37-.15,.16-.23,.37-.25,.64,0,.04,.01,.09,.02,.15,0,.06,.02,.13,.03,.19,.04,.19,.15,.36,.33,.49,.18,.14,.38,.21,.62,.22,.49-.03,.92-.29,1.29-.78Z"/><path class="f" d="M98.28,44.17c0-1.02,.25-1.83,.74-2.41,.49-.58,1.05-.98,1.7-1.2,.65-.21,1.27-.32,1.87-.32,1.18,.03,2.11,.25,2.79,.64l-.23,.86h-.13c-.25-.28-.57-.53-.96-.74-.4-.22-.91-.32-1.54-.32-.44,0-.85,.08-1.23,.22-.38,.14-.71,.35-1,.64-.29,.29-.52,.66-.68,1.1-.16,.45-.24,.96-.24,1.56,0,.72,.13,1.35,.4,1.87,.27,.52,.65,.92,1.14,1.19,.49,.27,1.08,.41,1.74,.41s1.25-.12,1.72-.37v-2.83c.06,0,.14,0,.25,.01,.11,0,.19,.01,.25,.02,.03,0,.19-.01,.47-.03v3.11c-.6,.18-1.1,.31-1.5,.38-.4,.08-.89,.12-1.48,.13-.87,0-1.62-.17-2.23-.5-.61-.33-1.08-.79-1.38-1.37-.31-.58-.46-1.24-.47-1.98v-.04s0-.02,0-.03Z"/><path class="f" d="M107.86,47.96v-5.27c.12,0,.25,.02,.39,.04,.28-.03,.45-.04,.49-.04v1.1c.14-.28,.34-.55,.6-.79,.26-.24,.54-.37,.84-.37,.13,0,.24,.01,.34,.03l-.14,.92c-.16-.11-.33-.16-.52-.16-.37,0-.65,.14-.84,.41-.19,.28-.28,.62-.28,1.03v3.09c-.13-.04-.28-.06-.45-.06-.15,0-.3,.02-.43,.06Z"/><path class="f" d="M111.92,45.46c0-.56,.12-1.06,.36-1.5,.24-.43,.57-.77,.98-1,.42-.23,.87-.35,1.36-.35,.39,0,.75,.07,1.08,.2,.33,.13,.61,.32,.84,.56,.23,.24,.41,.53,.53,.86,.12,.33,.19,.68,.19,1.06,0,.31-.05,.62-.16,.95-.11,.32-.27,.62-.49,.89-.22,.27-.51,.49-.86,.66-.35,.17-.77,.25-1.24,.25h-.01c-.51,0-.95-.12-1.33-.33-.38-.21-.68-.51-.9-.9-.22-.39-.33-.84-.36-1.36Zm.97-.02c0,.33,.04,.66,.13,1,.09,.33,.26,.63,.51,.87,.25,.25,.59,.38,1.02,.39,.33,0,.64-.11,.9-.32,.27-.21,.47-.5,.62-.87,.15-.36,.22-.76,.22-1.19,0-.26-.03-.53-.09-.8-.06-.27-.15-.52-.27-.76-.12-.23-.29-.42-.49-.57-.21-.15-.45-.22-.74-.23-.41,0-.76,.11-1.04,.34-.28,.23-.48,.53-.6,.9-.13,.38-.19,.79-.19,1.24Z"/><path class="f" d="M119.29,46.09v-3.4c.1,.01,.18,.02,.25,.03,.06,0,.12,.01,.16,.02,.06,0,.12-.01,.21-.02,.08,0,.17-.01,.27-.03v3.1c0,.5,.1,.91,.31,1.23,.21,.32,.55,.49,1.04,.49s.86-.18,1.05-.52c.19-.35,.29-.75,.29-1.21v-3.08c.08,0,.22,.02,.41,.04,.24-.03,.4-.04,.47-.04v5.27c-.05,0-.13-.01-.23-.02-.1,0-.17-.02-.23-.02-.05,0-.12,.01-.21,.02-.09,0-.17,.01-.22,.02v-.95c-.19,.34-.42,.59-.7,.75-.28,.17-.62,.26-1.03,.28-.75,0-1.24-.22-1.48-.65-.24-.44-.37-.87-.37-1.3Z"/><path class="f" d="M126.27,42.69c.09,0,.22,.02,.38,.04,.26-.03,.43-.04,.5-.04v1.1h.02c.33-.77,.96-1.16,1.87-1.16,.35,0,.69,.08,1.02,.25,.33,.16,.6,.43,.82,.81,.22,.38,.34,.87,.35,1.47,0,.37-.05,.72-.14,1.06-.1,.34-.24,.65-.44,.92-.19,.28-.44,.49-.73,.66-.29,.16-.63,.24-1.01,.24s-.72-.09-1.03-.28c-.3-.19-.54-.45-.72-.79h-.02v3.8c-.05,0-.13-.01-.25-.02-.11,0-.19-.01-.24-.02-.05,0-.11,.01-.2,.02-.08,0-.15,.01-.2,.02v-8.09Zm.88,2.75c0,.29,.04,.59,.11,.91,.07,.31,.23,.6,.47,.85,.24,.25,.58,.38,1.03,.38,.32,0,.6-.09,.82-.27s.4-.45,.51-.81c.12-.36,.17-.79,.17-1.3,0-.41-.05-.77-.14-1.1-.09-.33-.25-.59-.48-.79-.22-.2-.52-.3-.89-.3-.31,0-.59,.09-.84,.27-.24,.18-.44,.45-.57,.82-.14,.37-.21,.82-.21,1.35Z"/></g><g><path class="d" d="M102.08,31.46c-4.7-4.06-6.16-9.32-6.16-13.64v-4.58h10.83v5.15c0,1.64,.3,3.25,1.03,4.21,1.24,1.7,2.81,2.8,4.51,3.45,5.58,2.23,11.25-.05,13.45-2.84,1.5-1.77,1.84-3.23,1.84-4.93,.04-3.12-2.43-6.68-6.55-7.02-.23-.03-7.6-.02-7.6-.02h-17.52V0h17.65c5.84,0,9.75,2.29,12.5,4.81,3.36,3.07,5.25,7.23,5.63,11.47,.42,4.96-1.14,9.85-4.74,13.87-4.02,4.48-10.97,6.8-17.31,5.2-3.29-.89-4.97-1.65-7.57-3.89"/><polygon class="e" points="33.44 .19 21.47 33.05 11.98 33.05 0 .19 8.9 .19 16.84 23.27 24.79 .19 33.44 .19"/><path class="e" d="M54.37,22.85c0-1.05-.2-1.86-.6-2.43-.4-.57-1.08-1-2.05-1.28-.65-.19-1.56-.29-2.71-.31-1.15-.01-2.35-.02-3.61-.02h-1.84v8.23h.61c2.36,0,4.05,0,5.07-.02,1.02-.01,1.96-.21,2.82-.58,.88-.37,1.48-.86,1.8-1.47,.33-.61,.49-1.32,.49-2.12m-2.03-13.37c0-.54-.13-1.09-.41-1.64-.27-.55-.75-.95-1.44-1.22-.61-.23-1.38-.36-2.29-.39-.92-.02-2.2-.03-3.85-.03h-.79v6.96h1.32c1.33,0,2.46-.02,3.4-.07,.93-.05,1.67-.19,2.21-.44,.76-.34,1.26-.78,1.49-1.31,.23-.54,.35-1.16,.35-1.87m10.85,13.5c0,1.59-.32,3.01-.96,4.26-.64,1.25-1.52,2.29-2.64,3.11-1.29,.97-2.72,1.66-4.27,2.08-1.55,.41-3.52,.62-5.9,.62h-14.34V.19h12.76c2.65,0,4.59,.09,5.82,.26,1.23,.18,2.45,.57,3.65,1.17,1.25,.63,2.18,1.48,2.79,2.55,.61,1.06,.92,2.28,.92,3.65,0,1.59-.42,2.99-1.25,4.2-.84,1.21-2.02,2.16-3.54,2.83v.17c2.14,.43,3.83,1.31,5.09,2.65,1.25,1.34,1.88,3.11,1.88,5.3"/><polygon class="e" points="92.1 6.57 81.84 6.57 81.84 33.05 73.34 33.05 73.34 6.57 63.08 6.57 63.08 .19 92.1 .19 92.1 6.57"/></g></g></g></svg>